{"title":"Find Me Guilty 2006 BRRip 720p x264 AAC [VX] [P2PDL]","uid":7716028,"size":769211304,"categoryP":"video","categoryS":"hd___movies","magnet":"?xt=urn:btih:162f670928ad0f357791f2e4b5a5bbc1c6220a6f&amp;dn=Find+Me+Guilty+2006+BRRip+720p+x264+AAC+%5BVX%5D+%5BP2PDL%5D&amp;tr=udp%3A%2F%2Ftracker.openbittorrent.com%3A80&amp;tr=udp%3A%2F%2Fopen.demonii.com%3A1337&amp;tr=udp%3A%2F%2Ftracker.coppersurfer.tk%3A6969&amp;tr=udp%3A%2F%2Fexodus.desync.com%3A6969","seeders":13,"leechers":3,"uploader":"Vitamin_X","files":-1,"time":1349933188,"description":"Cover:  &lt;a href=&quot;\nhttp://www.shotpix.com/images/21387898447672356328.jpg&quot; rel=&quot;nofollow&quot; target=&quot;_NEW&quot;&gt;\nhttp://www.shotpix.com/images/21387898447672356328.jpg&lt;/a&gt;\n\n\nRelease Title: Find Me Guilty (2006)\n\n\nRatings: 7.0/10 |  &lt;a href=&quot;\nhttp://www.imdb.com/title/tt0419749/&quot; rel=&quot;nofollow&quot; target=&quot;_NEW&quot;&gt;\nhttp://www.imdb.com/title/tt0419749/&lt;/a&gt;\n\n\nPlot: Based on the true story of Jack DiNorscio, a mobster who defended himself in court for what would be the longest mafia trial in U.S. history.\n\nDirector: Sidney Lumet\n\nWriters: Sidney Lumet, T.J. Mancini\n\nStars:  Vin Diesel, Peter Dinklage and Ron Silver\n\nGenres: Comedy | Crime | Drama\n\nRating: Rated R for strong language and some violence.\n\n\n                Details:\n\nGeneral\nFormat                         : MPEG-4\nFormat profile                 : Base Media / Version 2\nFile size                      : 725 MiB\nDuration                       : 2h 4mn\nOverall bit rate               : 813 Kbps\n\nVideo\nID                             : 1\nFormat                         : AVC\nFormat/Info                    : Advanced Video Codec\nDuration                       : 2h 4mn\nBit rate mode                  : Variable\nBit rate                       : 712 Kbps\nWidth                          : 1 280 pixels\nHeight                         : 720 pixels\nDisplay aspect ratio           : 16:9\nFrame rate mode                : Variable\nFrame rate                     : 23.976 fps\nStream size                    : 635 MiB (88%)\nWriting library                : x264 core 125\n\n\nAudio\nID                             : 2\nFormat                         : AAC\nFormat/Info                    : Advanced Audio Codec\nFormat profile                 : LC\nDuration                       : 2h 4mn\nBit rate mode                  : Variable\nBit rate                       : 96.0 Kbps\nChannel(s)                     : 2 channels\nChannel positions              : Front: L R\nSampling rate                  : 48.0 KHz\nStream size                    : 85.6 MiB (12%)\n\nSubtitle                       : Yes (English)\n\n\nScreens:\n\n &lt;a href=&quot;\nhttp://www.shotpix.com/images/41736973590789624147.png&quot; rel=&quot;nofollow&quot; target=&quot;_NEW&quot;&gt;\nhttp://www.shotpix.com/images/41736973590789624147.png&lt;/a&gt; &lt;a href=&quot;\nhttp://www.shotpix.com/images/05622425599477596028.png&quot; rel=&quot;nofollow&quot; target=&quot;_NEW&quot;&gt;\nhttp://www.shotpix.com/images/05622425599477596028.png&lt;/a&gt; &lt;a href=&quot;\nhttp://www.shotpix.com/images/44532003239823460014.png&quot; rel=&quot;nofollow&quot; target=&quot;_NEW&quot;&gt;\nhttp://www.shotpix.com/images/44532003239823460014.png&lt;/a&gt; &lt;a href=&quot;\nhttp://www.shotpix.com/images/35874112571901197643.png&quot; rel=&quot;nofollow&quot; target=&quot;_NEW&quot;&gt;\nhttp://www.shotpix.com/images/35874112571901197643.png&lt;/a&gt; &lt;a href=&quot;\nhttp://www.shotpix.com/images/58840546014430441116.png&quot; rel=&quot;nofollow&quot; target=&quot;_NEW&quot;&gt;\nhttp://www.shotpix.com/images/58840546014430441116.png&lt;/a&gt;\n\n------------------------------------------------------------------------\n\n\nNotes:\n\n* Check sample to be sure.\n* Best played on VLC Media Player.\n* Install shark007 codecs in case of any kind of problem in playback (For non-VLC Media Player users).\n* Alternatively, install Core AVC codecs, the fastest decoder that there is coupled with Community Center Codec Pack and play on Windows Media Player Classic.\n* Read NFO.\n* Help in seeding this torrent as much as you can. \n\n\nGreets to: srkfan, VYTO, MgB, staff members at ExtraTorrent, TPB,KAT, 1337x, PublicHD, Ahashare,\nSilverTorrent, TorrentMafia, P2PDL, and all others\n\n\nEncoder Notes: Looking For Early Access To Anything You Can Provide DVDScr, R5, DVDRips, BluRay, Direct Audio, Early Music\nReleases, Seedboxes, Links, Dedicated Servers, Advance / Promo CDs/DVDs. If You Got anything to\noffer contact me at &quot;&lt;a class=&quot;__cf_email__&quot; href=&quot;/cdn-cgi/l/email-protection&quot; data-cfemail=&quot;1f7c70716b7e7c6b5f6b76716672317a6a&quot;&gt;[email&amp;#160;protected]&lt;/a&gt;&lt;script cf-hash='f9e31' type=&quot;text/javascript&quot;&gt;\n/* &lt;![CDATA[ */!function(){try{var t=&quot;currentScript&quot;in document?document.currentScript:function(){for(var t=document.getElementsByTagName(&quot;script&quot;),e=t.length;e--;)if(t[e].getAttribute(&quot;cf-hash&quot;))return t[e]}();if(t&amp;&amp;t.previousSibling){var e,r,n,i,c=t.previousSibling,a=c.getAttribute(&quot;data-cfemail&quot;);if(a){for(e=&quot;&quot;,r=parseInt(a.substr(0,2),16),n=2;a.length-n;n+=2)i=parseInt(a.substr(n,2),16)^r,e+=String.fromCharCode(i);e=document.createTextNode(e),c.parentNode.replaceChild(e,c)}}}catch(u){}}();/* ]]&gt; */&lt;/script&gt;&quot;.\n\nFacebook fan page: www . facebook . com / p2pdl\n\nEnhanced for best viewing experience. Enjoy!","torrent":{"xt":"urn:btih:162f670928ad0f357791f2e4b5a5bbc1c6220a6f","amp;dn":"Find+Me+Guilty+2006+BRRip+720p+x264+AAC+%5BVX%5D+%5BP2PDL%5D","amp;tr":["udp%3A%2F%2Ftracker.openbittorrent.com%3A80","udp%3A%2F%2Fopen.demonii.com%3A1337","udp%3A%2F%2Ftracker.coppersurfer.tk%3A6969","udp%3A%2F%2Fexodus.desync.com%3A6969"],"infoHash":"162f670928ad0f357791f2e4b5a5bbc1c6220a6f","infoHashBuffer":{"type":"Buffer","data":[22,47,103,9,40,173,15,53,119,145,242,228,181,165,187,193,198,34,10,111]},"announce":[],"urlList":[]}}